<?xml version="1.0" encoding="UTF-8"?>
<!DOCTYPE svg PUBLIC "-//W3C//DTD SVG 1.1//EN" "http://www.w3.org/Graphics/SVG/1.1/DTD/svg11.dtd">
<svg xmlns="http://www.w3.org/2000/svg" xmlns:xlink="http://www.w3.org/1999/xlink" version="1.1" width="488px" height="493px" viewBox="-0.5 -0.5 488 493"><defs/><g><ellipse cx="79" cy="108.39" rx="10" ry="10" fill="#99ccff" stroke="rgb(0, 0, 0)" pointer-events="all"/><ellipse cx="134.14" cy="169" rx="10" ry="10" fill="#ff9999" stroke="rgb(0, 0, 0)" pointer-events="all"/><ellipse cx="169.65" cy="152" rx="10" ry="10" fill="#004c99" stroke="rgb(0, 0, 0)" pointer-events="all"/><ellipse cx="69" cy="182" rx="10" ry="10" fill="#cc0000" stroke="rgb(0, 0, 0)" pointer-events="all"/><ellipse cx="159" cy="112" rx="10" ry="10" fill="#3399ff" stroke="rgb(0, 0, 0)" pointer-events="all"/><ellipse cx="214.15" cy="149" rx="10" ry="10" fill="#0066cc" stroke="rgb(0, 0, 0)" pointer-events="all"/><ellipse cx="119" cy="92" rx="10" ry="10" fill="#ff3333" stroke="rgb(0, 0, 0)" pointer-events="all"/><ellipse cx="192" cy="42" rx="10" ry="10" fill="#cc0000" stroke="rgb(0, 0, 0)" pointer-events="all"/><ellipse cx="129" cy="42" rx="10" ry="10" fill="#ff3333" stroke="rgb(0, 0, 0)" pointer-events="all"/><ellipse cx="66" cy="62" rx="10" ry="10" fill="#ffcccc" stroke="rgb(0, 0, 0)" pointer-events="all"/><ellipse cx="209" cy="92" rx="10" ry="10" fill="#ff3333" stroke="rgb(0, 0, 0)" pointer-events="all"/><ellipse cx="99" cy="144.18" rx="10" ry="10" fill="#cc0000" stroke="rgb(0, 0, 0)" pointer-events="all"/><ellipse cx="31" cy="149" rx="10" ry="10" fill="#ff3333" stroke="rgb(0, 0, 0)" pointer-events="all"/><ellipse cx="24" cy="189" rx="10" ry="10" fill="#ffcccc" stroke="rgb(0, 0, 0)" pointer-events="all"/><ellipse cx="129.67" cy="438" rx="10" ry="10" fill="#007fff" stroke="rgb(0, 0, 0)" pointer-events="all"/><ellipse cx="201" cy="477.64" rx="10" ry="10" fill="#66b2ff" stroke="rgb(0, 0, 0)" pointer-events="all"/><ellipse cx="149.67" cy="477.64" rx="10" ry="10" fill="#66b2ff" stroke="rgb(0, 0, 0)" pointer-events="all"/><ellipse cx="229" cy="418" rx="10" ry="10" fill="#004c99" stroke="rgb(0, 0, 0)" pointer-events="all"/><path d="M 66.44 147.68 Q 204.15 147.68 204.15 267.16 Q 204.15 386.63 66.44 386.63 Z" fill="none" stroke="#999999" stroke-width="10" stroke-miterlimit="10" transform="rotate(80,135.3,267.16)" pointer-events="all"/><path d="M 41.92 213.35 L 398.28 148.11" fill="none" stroke="#999999" stroke-width="10" stroke-miterlimit="10" pointer-events="stroke"/><rect x="397.67" y="120.75" width="81.23" height="40.61" fill="none" stroke="#999999" stroke-width="10" transform="rotate(-10,438.28,141.05)" pointer-events="all"/><ellipse cx="102.67" cy="264.36" rx="10" ry="10" fill="#ff0000" stroke="rgb(0, 0, 0)" pointer-events="all"/><ellipse cx="157.67" cy="304.36" rx="10" ry="10" fill="#990000" stroke="rgb(0, 0, 0)" pointer-events="all"/><ellipse cx="206.67" cy="254.31" rx="10" ry="10" fill="#ff0000" stroke="rgb(0, 0, 0)" pointer-events="all"/><ellipse cx="153.32" cy="247" rx="10" ry="10" fill="#ff0000" stroke="rgb(0, 0, 0)" transform="rotate(5,153.32,247)" pointer-events="all"/><ellipse cx="216.67" cy="225" rx="10" ry="10" fill="#ff9999" stroke="rgb(0, 0, 0)" pointer-events="all"/><ellipse cx="122.67" cy="234.31" rx="10" ry="10" fill="#ff9999" stroke="rgb(0, 0, 0)" pointer-events="all"/><ellipse cx="201.67" cy="287" rx="10" ry="10" fill="#990000" stroke="rgb(0, 0, 0)" pointer-events="all"/><ellipse cx="104" cy="477.64" rx="10" ry="10" fill="#66b2ff" stroke="rgb(0, 0, 0)" pointer-events="all"/><ellipse cx="166" cy="452" rx="10" ry="10" fill="#0066cc" stroke="rgb(0, 0, 0)" pointer-events="all"/><ellipse cx="138" cy="410" rx="10" ry="10" fill="#99ccff" stroke="rgb(0, 0, 0)" pointer-events="all"/><ellipse cx="101" cy="414.63" rx="10" ry="10" fill="#66b2ff" stroke="rgb(0, 0, 0)" pointer-events="all"/><ellipse cx="121" cy="386" rx="10" ry="10" fill="#0066cc" stroke="rgb(0, 0, 0)" pointer-events="all"/><ellipse cx="84" cy="448" rx="10" ry="10" fill="#007fff" stroke="rgb(0, 0, 0)" pointer-events="all"/><ellipse cx="41.67" cy="250.36" rx="10" ry="10" fill="#ff9999" stroke="rgb(0, 0, 0)" pointer-events="all"/><ellipse cx="66" cy="270.36" rx="10" ry="10" fill="#ff0000" stroke="rgb(0, 0, 0)" pointer-events="all"/><ellipse cx="109" cy="314" rx="10" ry="10" fill="#990000" stroke="rgb(0, 0, 0)" pointer-events="all"/><ellipse cx="253" cy="448" rx="10" ry="10" fill="#66b2ff" stroke="rgb(0, 0, 0)" pointer-events="all"/><ellipse cx="278" cy="477.64" rx="10" ry="10" fill="#66b2ff" stroke="rgb(0, 0, 0)" pointer-events="all"/><ellipse cx="51" cy="477.64" rx="10" ry="10" fill="#99ccff" stroke="rgb(0, 0, 0)" pointer-events="all"/><ellipse cx="196.67" cy="390" rx="10" ry="10" fill="#004c99" stroke="rgb(0, 0, 0)" pointer-events="all"/><ellipse cx="129" cy="282" rx="10" ry="10" fill="#990000" stroke="rgb(0, 0, 0)" pointer-events="all"/><ellipse cx="173.32" cy="225" rx="10" ry="10" fill="#ff9999" stroke="rgb(0, 0, 0)" pointer-events="all"/><ellipse cx="79" cy="234.31" rx="10" ry="10" fill="#ff9999" stroke="rgb(0, 0, 0)" pointer-events="all"/><ellipse cx="172" cy="274.31" rx="10" ry="10" fill="#ff0000" stroke="rgb(0, 0, 0)" transform="rotate(5,172,274.31)" pointer-events="all"/><ellipse cx="79" cy="299" rx="10" ry="10" fill="#990000" stroke="rgb(0, 0, 0)" pointer-events="all"/><ellipse cx="196.67" cy="205" rx="10" ry="10" fill="#ff9999" stroke="rgb(0, 0, 0)" pointer-events="all"/><ellipse cx="21.67" cy="94" rx="10" ry="10" fill="#ff3333" stroke="rgb(0, 0, 0)" pointer-events="all"/><ellipse cx="173.32" cy="79" rx="10" ry="10" fill="#3399ff" stroke="rgb(0, 0, 0)" pointer-events="all"/><ellipse cx="59" cy="144.18" rx="10" ry="10" fill="#66b2ff" stroke="rgb(0, 0, 0)" pointer-events="all"/><ellipse cx="184" cy="412" rx="10" ry="10" fill="#004c99" stroke="rgb(0, 0, 0)" pointer-events="all"/><ellipse cx="193.32" cy="438" rx="10" ry="10" fill="#0066cc" stroke="rgb(0, 0, 0)" pointer-events="all"/><ellipse cx="149" cy="356" rx="10" ry="10" fill="#0066cc" stroke="rgb(0, 0, 0)" pointer-events="all"/><ellipse cx="39" cy="39" rx="10" ry="10" fill="#ffcccc" stroke="rgb(0, 0, 0)" pointer-events="all"/><ellipse cx="96" cy="34" rx="10" ry="10" fill="#3399ff" stroke="rgb(0, 0, 0)" pointer-events="all"/><ellipse cx="159" cy="10" rx="10" ry="10" fill="#004c99" stroke="rgb(0, 0, 0)" pointer-events="all"/><ellipse cx="149.67" cy="390" rx="10" ry="10" fill="#99ccff" stroke="rgb(0, 0, 0)" pointer-events="all"/><ellipse cx="177.67" cy="362" rx="10" ry="10" fill="#66b2ff" stroke="rgb(0, 0, 0)" pointer-events="all"/><ellipse cx="221.67" cy="448" rx="10" ry="10" fill="#66b2ff" stroke="rgb(0, 0, 0)" pointer-events="all"/><ellipse cx="246.67" cy="481" rx="10" ry="10" fill="#004c99" stroke="rgb(0, 0, 0)" pointer-events="all"/></g></svg>