<?xml version="1.0" encoding="UTF-8"?>
<!DOCTYPE svg PUBLIC "-//W3C//DTD SVG 1.1//EN" "http://www.w3.org/Graphics/SVG/1.1/DTD/svg11.dtd">
<svg xmlns="http://www.w3.org/2000/svg" xmlns:xlink="http://www.w3.org/1999/xlink" version="1.1" width="516px" height="442px" viewBox="-0.5 -0.5 516 442"><defs/><g><ellipse cx="154.67" cy="370.11" rx="10" ry="10" fill="#cc0000" stroke="rgb(0, 0, 0)" pointer-events="all"/><ellipse cx="94.67" cy="430.11" rx="10" ry="10" fill="#cc0000" stroke="rgb(0, 0, 0)" pointer-events="all"/><ellipse cx="124.67" cy="430.11" rx="10" ry="10" fill="#cc0000" stroke="rgb(0, 0, 0)" pointer-events="all"/><ellipse cx="164.67" cy="430.11" rx="10" ry="10" fill="#cc0000" stroke="rgb(0, 0, 0)" pointer-events="all"/><ellipse cx="194.67" cy="390.11" rx="10" ry="10" fill="#ff0000" stroke="rgb(0, 0, 0)" pointer-events="all"/><ellipse cx="218.67" cy="430.11" rx="10" ry="10" fill="#cc0000" stroke="rgb(0, 0, 0)" pointer-events="all"/><ellipse cx="154.67" cy="400.11" rx="10" ry="10" fill="#ff0000" stroke="rgb(0, 0, 0)" pointer-events="all"/><ellipse cx="149.67" cy="310.11" rx="10" ry="10" fill="#007fff" stroke="rgb(0, 0, 0)" pointer-events="all"/><ellipse cx="238.67" cy="390.11" rx="10" ry="10" fill="#ff0000" stroke="rgb(0, 0, 0)" pointer-events="all"/><ellipse cx="264.67" cy="430.11" rx="10" ry="10" fill="#cc0000" stroke="rgb(0, 0, 0)" pointer-events="all"/><ellipse cx="74.67" cy="390.11" rx="10" ry="10" fill="#ff6666" stroke="rgb(0, 0, 0)" pointer-events="all"/><ellipse cx="264.67" cy="370.11" rx="10" ry="10" fill="#ff3333" stroke="rgb(0, 0, 0)" pointer-events="all"/><ellipse cx="334.67" cy="430.11" rx="10" ry="10" fill="#cc0000" stroke="rgb(0, 0, 0)" pointer-events="all"/><ellipse cx="294.67" cy="400.11" rx="10" ry="10" fill="#ff0000" stroke="rgb(0, 0, 0)" pointer-events="all"/><ellipse cx="228.67" cy="340.11" rx="10" ry="10" fill="#66b2ff" stroke="rgb(0, 0, 0)" pointer-events="all"/><ellipse cx="184.67" cy="340.11" rx="10" ry="10" fill="#66b2ff" stroke="rgb(0, 0, 0)" pointer-events="all"/><ellipse cx="208.67" cy="269.36" rx="10" ry="10" fill="#004c99" stroke="rgb(0, 0, 0)" pointer-events="all"/><path d="M 87.49 17.66 Q 227.26 17.66 227.26 160.06 Q 227.26 302.47 87.49 302.47 Z" fill="none" stroke="#999999" stroke-width="10" stroke-miterlimit="10" transform="rotate(80,157.38,160.07)" pointer-events="all"/><path d="M 68.92 104.35 L 425.28 39.11" fill="none" stroke="#999999" stroke-width="10" stroke-miterlimit="10" pointer-events="stroke"/><rect x="424.67" y="11.75" width="81.23" height="40.61" fill="none" stroke="#999999" stroke-width="10" transform="rotate(-10,465.28,32.05)" pointer-events="all"/><ellipse cx="129.67" cy="155.36" rx="10" ry="10" fill="#004c99" stroke="rgb(0, 0, 0)" pointer-events="all"/><ellipse cx="179.67" cy="182.09" rx="10" ry="10" fill="#ff3333" stroke="rgb(0, 0, 0)" pointer-events="all"/><ellipse cx="233.67" cy="145.31" rx="10" ry="10" fill="#66b2ff" stroke="rgb(0, 0, 0)" pointer-events="all"/><ellipse cx="189.4" cy="135.36" rx="10" ry="10" fill="#0066cc" stroke="rgb(0, 0, 0)" pointer-events="all"/><ellipse cx="240.32" cy="105.36" rx="10" ry="10" fill="#ff3333" stroke="rgb(0, 0, 0)" pointer-events="all"/><ellipse cx="149.67" cy="125.31" rx="10" ry="10" fill="#ff3333" stroke="rgb(0, 0, 0)" pointer-events="all"/><ellipse cx="220.32" cy="175.36" rx="10" ry="10" fill="#cc0000" stroke="rgb(0, 0, 0)" pointer-events="all"/><ellipse cx="124.67" cy="350.11" rx="10" ry="10" fill="#66b2ff" stroke="rgb(0, 0, 0)" pointer-events="all"/><ellipse cx="44.67" cy="430.11" rx="10" ry="10" fill="#cc0000" stroke="rgb(0, 0, 0)" pointer-events="all"/><ellipse cx="113.48" cy="390.11" rx="10" ry="10" fill="#ff6666" stroke="rgb(0, 0, 0)" pointer-events="all"/><ellipse cx="208.67" cy="304.11" rx="10" ry="10" fill="#0066cc" stroke="rgb(0, 0, 0)" pointer-events="all"/><ellipse cx="166.67" cy="277.36" rx="10" ry="10" fill="#99ccff" stroke="rgb(0, 0, 0)" pointer-events="all"/><ellipse cx="134.67" cy="279.11" rx="10" ry="10" fill="#66b2ff" stroke="rgb(0, 0, 0)" pointer-events="all"/><ellipse cx="180.32" cy="245.36" rx="10" ry="10" fill="#0066cc" stroke="rgb(0, 0, 0)" pointer-events="all"/><ellipse cx="101.67" cy="324.11" rx="10" ry="10" fill="#007fff" stroke="rgb(0, 0, 0)" pointer-events="all"/><ellipse cx="68.67" cy="141.36" rx="10" ry="10" fill="#ff3333" stroke="rgb(0, 0, 0)" pointer-events="all"/><ellipse cx="96.67" cy="182.09" rx="10" ry="10" fill="#66b2ff" stroke="rgb(0, 0, 0)" pointer-events="all"/><ellipse cx="139.67" cy="198.36" rx="10" ry="10" fill="#ff3333" stroke="rgb(0, 0, 0)" pointer-events="all"/><ellipse cx="243.67" cy="304.11" rx="10" ry="10" fill="#66b2ff" stroke="rgb(0, 0, 0)" pointer-events="all"/></g></svg>