<?xml version="1.0" encoding="UTF-8"?>
<!DOCTYPE svg PUBLIC "-//W3C//DTD SVG 1.1//EN" "http://www.w3.org/Graphics/SVG/1.1/DTD/svg11.dtd">
<svg xmlns="http://www.w3.org/2000/svg" xmlns:xlink="http://www.w3.org/1999/xlink" version="1.1" width="205px" height="205px" viewBox="-0.5 -0.5 205 205"><defs/><g><ellipse cx="101.75" cy="101.75" rx="98.75" ry="98.75" fill="none" stroke="#ffffff" stroke-width="7" pointer-events="all"/><rect x="174" y="77.25" width="24" height="49" rx="3.6" ry="3.6" fill="#990000" stroke="rgb(0, 0, 0)" stroke-width="2" transform="rotate(-180,186,101.75)" pointer-events="all"/><rect x="150" y="77.25" width="24" height="49" rx="3.6" ry="3.6" fill="#cc0000" stroke="rgb(0, 0, 0)" stroke-width="2" transform="rotate(-180,162,101.75)" pointer-events="all"/><rect x="126" y="77.25" width="24" height="49" rx="3.6" ry="3.6" fill="#ff0000" stroke="rgb(0, 0, 0)" stroke-width="2" transform="rotate(-180,138,101.75)" pointer-events="all"/><rect x="102" y="77.25" width="24" height="49" rx="3.6" ry="3.6" fill="#ff3333" stroke="rgb(0, 0, 0)" stroke-width="2" transform="rotate(-180,114,101.75)" pointer-events="all"/><rect x="78" y="77.25" width="24" height="49" rx="3.6" ry="3.6" fill="#66b2ff" stroke="rgb(0, 0, 0)" stroke-width="2" transform="rotate(-180,90,101.75)" pointer-events="all"/><rect x="54" y="77.25" width="24" height="49" rx="3.6" ry="3.6" fill="#007fff" stroke="rgb(0, 0, 0)" stroke-width="2" transform="rotate(-180,66,101.75)" pointer-events="all"/><rect x="30" y="77.25" width="24" height="49" rx="3.6" ry="3.6" fill="#0066cc" stroke="rgb(0, 0, 0)" stroke-width="2" transform="rotate(-180,42,101.75)" pointer-events="all"/><rect x="6" y="77.25" width="24" height="49" rx="3.6" ry="3.6" fill="#003366" stroke="rgb(0, 0, 0)" stroke-width="2" transform="rotate(-180,18,101.75)" pointer-events="all"/></g></svg>