<?xml version="1.0" encoding="UTF-8"?>
<!DOCTYPE svg PUBLIC "-//W3C//DTD SVG 1.1//EN" "http://www.w3.org/Graphics/SVG/1.1/DTD/svg11.dtd">
<svg xmlns="http://www.w3.org/2000/svg" xmlns:xlink="http://www.w3.org/1999/xlink" version="1.1" width="516px" height="442px" viewBox="-0.5 -0.5 516 442"><defs/><g><ellipse cx="155" cy="370.75" rx="10" ry="10" fill="#cc0000" stroke="rgb(0, 0, 0)" pointer-events="all"/><ellipse cx="95" cy="430.75" rx="10" ry="10" fill="#cc0000" stroke="rgb(0, 0, 0)" pointer-events="all"/><ellipse cx="125" cy="430.75" rx="10" ry="10" fill="#cc0000" stroke="rgb(0, 0, 0)" pointer-events="all"/><ellipse cx="165" cy="430.75" rx="10" ry="10" fill="#cc0000" stroke="rgb(0, 0, 0)" pointer-events="all"/><ellipse cx="195" cy="390.75" rx="10" ry="10" fill="#ff0000" stroke="rgb(0, 0, 0)" pointer-events="all"/><ellipse cx="219" cy="430.75" rx="10" ry="10" fill="#cc0000" stroke="rgb(0, 0, 0)" pointer-events="all"/><ellipse cx="155" cy="400.75" rx="10" ry="10" fill="#ff0000" stroke="rgb(0, 0, 0)" pointer-events="all"/><ellipse cx="150" cy="310.75" rx="10" ry="10" fill="#007fff" stroke="rgb(0, 0, 0)" pointer-events="all"/><ellipse cx="239" cy="390.75" rx="10" ry="10" fill="#ff0000" stroke="rgb(0, 0, 0)" pointer-events="all"/><ellipse cx="265" cy="430.75" rx="10" ry="10" fill="#cc0000" stroke="rgb(0, 0, 0)" pointer-events="all"/><ellipse cx="75" cy="390.75" rx="10" ry="10" fill="#ff6666" stroke="rgb(0, 0, 0)" pointer-events="all"/><ellipse cx="265" cy="370.75" rx="10" ry="10" fill="#ff3333" stroke="rgb(0, 0, 0)" pointer-events="all"/><ellipse cx="335" cy="430.75" rx="10" ry="10" fill="#cc0000" stroke="rgb(0, 0, 0)" pointer-events="all"/><ellipse cx="295" cy="400.75" rx="10" ry="10" fill="#ff0000" stroke="rgb(0, 0, 0)" pointer-events="all"/><ellipse cx="229" cy="340.75" rx="10" ry="10" fill="#66b2ff" stroke="rgb(0, 0, 0)" pointer-events="all"/><ellipse cx="185" cy="340.75" rx="10" ry="10" fill="#66b2ff" stroke="rgb(0, 0, 0)" pointer-events="all"/><ellipse cx="209" cy="270" rx="10" ry="10" fill="#004c99" stroke="rgb(0, 0, 0)" pointer-events="all"/><path d="M 87.82 18.3 Q 227.59 18.3 227.59 160.7 Q 227.59 303.11 87.82 303.11 Z" fill="#e6e6e6" stroke="#000000" stroke-width="10" stroke-miterlimit="10" transform="rotate(80,157.71,160.7)" pointer-events="all"/><path d="M 69.25 104.99 L 425.61 39.75" fill="none" stroke="rgb(0, 0, 0)" stroke-width="10" stroke-miterlimit="10" pointer-events="stroke"/><rect x="425" y="12.39" width="81.23" height="40.61" fill="#e6e6e6" stroke="rgb(0, 0, 0)" stroke-width="10" transform="rotate(-10,465.61,32.69)" pointer-events="all"/><ellipse cx="130" cy="156" rx="10" ry="10" fill="#004c99" stroke="rgb(0, 0, 0)" pointer-events="all"/><ellipse cx="180" cy="182.73" rx="10" ry="10" fill="#ff3333" stroke="rgb(0, 0, 0)" pointer-events="all"/><ellipse cx="234" cy="145.95" rx="10" ry="10" fill="#66b2ff" stroke="rgb(0, 0, 0)" pointer-events="all"/><ellipse cx="189.73" cy="136" rx="10" ry="10" fill="#0066cc" stroke="rgb(0, 0, 0)" pointer-events="all"/><ellipse cx="240.65" cy="106" rx="10" ry="10" fill="#ff3333" stroke="rgb(0, 0, 0)" pointer-events="all"/><ellipse cx="150" cy="125.95" rx="10" ry="10" fill="#ff3333" stroke="rgb(0, 0, 0)" pointer-events="all"/><ellipse cx="220.65" cy="176" rx="10" ry="10" fill="#cc0000" stroke="rgb(0, 0, 0)" pointer-events="all"/><ellipse cx="125" cy="350.75" rx="10" ry="10" fill="#66b2ff" stroke="rgb(0, 0, 0)" pointer-events="all"/><ellipse cx="45" cy="430.75" rx="10" ry="10" fill="#cc0000" stroke="rgb(0, 0, 0)" pointer-events="all"/><ellipse cx="113.81" cy="390.75" rx="10" ry="10" fill="#ff6666" stroke="rgb(0, 0, 0)" pointer-events="all"/><ellipse cx="209" cy="304.75" rx="10" ry="10" fill="#0066cc" stroke="rgb(0, 0, 0)" pointer-events="all"/><ellipse cx="167" cy="278" rx="10" ry="10" fill="#99ccff" stroke="rgb(0, 0, 0)" pointer-events="all"/><ellipse cx="135" cy="279.75" rx="10" ry="10" fill="#66b2ff" stroke="rgb(0, 0, 0)" pointer-events="all"/><ellipse cx="180.65" cy="246" rx="10" ry="10" fill="#0066cc" stroke="rgb(0, 0, 0)" pointer-events="all"/><ellipse cx="102" cy="324.75" rx="10" ry="10" fill="#007fff" stroke="rgb(0, 0, 0)" pointer-events="all"/><ellipse cx="69" cy="142" rx="10" ry="10" fill="#ff3333" stroke="rgb(0, 0, 0)" pointer-events="all"/><ellipse cx="97" cy="182.73" rx="10" ry="10" fill="#66b2ff" stroke="rgb(0, 0, 0)" pointer-events="all"/><ellipse cx="140" cy="199" rx="10" ry="10" fill="#ff3333" stroke="rgb(0, 0, 0)" pointer-events="all"/><ellipse cx="244" cy="304.75" rx="10" ry="10" fill="#66b2ff" stroke="rgb(0, 0, 0)" pointer-events="all"/></g></svg>